<svg width="53" height="53" viewBox="0 0 53 53" fill="none" xmlns="http://www.w3.org/2000/svg"><path fill-rule="evenodd" clip-rule="evenodd" d="M31.976 11.536c-.228-3.227-1.569-7.73-4.846-9.98C23.924-.645 18.888-.18 15.187.928 6.949 3.394 2.035 9.826.8 16.32a27.106 27.106 0 00-.458 4.934c-1.166 8.308.664 16.688 5.299 24.392 1.583 2.632 6.192 1.01 6.457-1.348l2.098-18.676a12.03 12.03 0 003.937-.456c2.549.597 5.265.387 7.908-1.218 3.187-1.936 5.177-5.73 5.671-9.327.242-1 .338-2.036.264-3.086zM42.606 31a4.401 4.401 0 00-.332-.168c.02-.151.05-.38.074-.615.127-.074.256-.146.39-.217.032.36-.015.771-.132 1zm5.724-7.196c-.8-.675-2.18-.983-3.293-.697-.522.133-1.023.29-1.514.46-8.027-2.57-12.748 6.498-13.39 11.615-.802 6.38 2.4 13.004 8.51 17.155 1.954 1.328 6.16.647 5.779-1.92a81.948 81.948 0 01-.835-8.971 9.523 9.523 0 002.01-.651c7.493-3.395 8.442-12.168 2.733-16.99z" fill="#F08700"/></svg>