<svg width="45" height="34" viewBox="0 0 45 34" fill="none" xmlns="http://www.w3.org/2000/svg"><path fill-rule="evenodd" clip-rule="evenodd" d="M16.69 1.017c-2.785-1.382-6.45-.87-9 .675-3.12 1.888-4.326 5.255-4.82 8.403-.439 2.807-.902 6.325 1.484 8.609 1.17 1.12 2.693 1.542 4.167 1.396-1.048 3.232-3.03 6.143-5.725 8.572-.45.244-.909.48-1.38.7-3.162 1.474-.482 5.64 2.662 4.4a2.986 2.986 0 001.684-.667c.19-.154.372-.313.557-.47 5.74-3.22 10.057-8.087 12.435-13.734 2-4.749 4.187-14.782-2.065-17.884zm27.121 9.521c-1.317-3.351-4.846-5.708-9.09-5.092-4.79.695-8.215 4.815-9.76 8.498-1.458 3.48-.554 7.995 4.056 9.275 1.938.538 4.03.382 5.948-.24-1.775 2.134-3.998 4.021-6.263 5.539-2.955 1.98 1.199 5.495 4.125 3.535 6.943-4.65 14.1-13.584 10.984-21.515z" fill="#F08700"/></svg>